<svg id="SvgjsSvg1023" width="288" height="288" xmlns="http://www.w3.org/2000/svg" version="1.1" xmlns:xlink="http://www.w3.org/1999/xlink" xmlns:svgjs="http://svgjs.com/svgjs"><defs id="SvgjsDefs1024"></defs><g id="SvgjsG1025" transform="matrix(0.9167,0,0,0.9167,11.995200000000011,11.995200000000011)"><svg xmlns="http://www.w3.org/2000/svg" viewBox="0 0 24 24" width="288" height="288"><path d="M12,2A10,10,0,0,0,12,22,10,10,0,0,0,12,2Zm4.19,12.75a1,1,0,0,1,0,1.41,1,1,0,0,1-.7.3,1,1,0,0,1-.71-.3L12,13.41,9.22,16.19a1,1,0,0,1-.71.3,1,1,0,0,1-.7-.3,1,1,0,0,1,0-1.41L10.59,12,7.81,9.22A1,1,0,0,1,9.22,7.81L12,10.59l2.78-2.78a1,1,0,0,1,1.41,1.41L13.41,12Z" data-name="time" fill="#f9774d" class="color000 svgShape"></path></svg></g></svg>