<svg id="SvgjsSvg1021" width="288" height="288" xmlns="http://www.w3.org/2000/svg" version="1.1" xmlns:xlink="http://www.w3.org/1999/xlink" xmlns:svgjs="http://svgjs.com/svgjs"><defs id="SvgjsDefs1022"></defs><g id="SvgjsG1023" transform="matrix(0.9167,0,0,0.9167,11.994993453216551,12.370049999999992)"><svg xmlns="http://www.w3.org/2000/svg" enable-background="new 0 0 32 32" viewBox="0 0 32 32" width="288" height="288"><path fill="none" stroke="#ffffff" stroke-linecap="round" stroke-linejoin="round" stroke-miterlimit="10" stroke-width="2" d="	M22.449,18.332c-1.14-0.276-2.199,0.033-2.974,0.677c-0.162,0.135-0.416,0.05-0.441-0.159C18.713,16.119,16.394,14,13.577,14
	c-2.071,0-3.872,1.146-4.811,2.836c-0.834-0.326-1.785-0.423-2.799-0.095c-1.511,0.488-2.68,1.797-2.917,3.368
	C2.652,22.738,4.677,25,7.231,25h14.385c2.127,0,3.796-1.963,3.295-4.176C24.636,19.611,23.658,18.625,22.449,18.332z" class="colorStroke000 svgStroke"></path><path fill="none" stroke="#ffffff" stroke-linecap="round" stroke-linejoin="round" stroke-miterlimit="10" stroke-width="2" d="
	M23.766,19h1.849c2.127,0,3.796-1.963,3.295-4.176c-0.275-1.213-1.253-2.199-2.461-2.492c-1.14-0.276-2.199,0.033-2.974,0.677
	c-0.162,0.135-0.416,0.05-0.441-0.159C22.713,10.119,20.394,8,17.577,8c-2.071,0-3.872,1.146-4.811,2.836
	c-0.834-0.326-1.785-0.423-2.799-0.095c-1.511,0.488-2.68,1.797-2.917,3.368c-0.133,0.877,0.009,1.711,0.346,2.436" class="colorStroke000 svgStroke"></path></svg></g></svg>