<svg id="SvgjsSvg1011" width="288" height="288" xmlns="http://www.w3.org/2000/svg" version="1.1" xmlns:xlink="http://www.w3.org/1999/xlink" xmlns:svgjs="http://svgjs.com/svgjs"><defs id="SvgjsDefs1012"></defs><g id="SvgjsG1013" transform="matrix(0.9167,0,0,0.9167,11.9986293121338,12.028456892013565)"><svg xmlns="http://www.w3.org/2000/svg" viewBox="0 0 32 32" width="288" height="288"><path d="M29.56,19.36a1,1,0,0,0-1.21.07A10.49,10.49,0,0,1,21.51,22,10.17,10.17,0,0,1,11.2,12a9.94,9.94,0,0,1,4.28-8.1,1,1,0,0,0,.36-1.17,1,1,0,0,0-1-.64A14.1,14.1,0,0,0,2,16,14.21,14.21,0,0,0,16.37,30a14.34,14.34,0,0,0,13.57-9.44A1,1,0,0,0,29.56,19.36ZM16.37,28A12.2,12.2,0,0,1,4,16,12,12,0,0,1,11.57,4.89,11.82,11.82,0,0,0,9.2,12,12.17,12.17,0,0,0,21.51,24a12.49,12.49,0,0,0,4.89-1A12.5,12.5,0,0,1,16.37,28Z" data-name="Layer 46" fill="#ffffff" class="color000 svgShape"></path></svg></g></svg>