<svg id="SvgjsSvg1001" width="288" height="288" xmlns="http://www.w3.org/2000/svg" version="1.1" xmlns:xlink="http://www.w3.org/1999/xlink" xmlns:svgjs="http://svgjs.com/svgjs"><defs id="SvgjsDefs1002"></defs><g id="SvgjsG1008" transform="matrix(0.9167,0,0,0.9167,11.995199880838413,11.995199880838413)"><svg xmlns="http://www.w3.org/2000/svg" enable-background="new 0 0 47.5 47.5" viewBox="0 0 47.5 47.5" width="288" height="288"><defs><clipPath id="a" clipPathUnits="userSpaceOnUse"><path d="M 0,38 38,38 38,0 0,0 0,38 Z" fill="#ffffff" class="color000 svgShape"></path></clipPath></defs><g clip-path="url(#a)" transform="matrix(1.25 0 0 -1.25 0 47.5)" fill="#ffffff" class="color000 svgShape"><path fill="#ffffff" d="m 0,0 c 0,-1.104 -0.896,-2 -2,-2 -1.104,0 -2,0.896 -2,2 l 0,4 c 0,1.104 0.896,2 2,2 1.104,0 2,-0.896 2,-2 L 0,0 Z" transform="translate(21 31)" class="colorffac33 svgShape"></path><path fill="#ffffff" d="m 0,0 c 0,-1.104 -0.896,-2 -2,-2 -1.104,0 -2,0.896 -2,2 l 0,4 c 0,1.104 0.896,2 2,2 1.104,0 2,-0.896 2,-2 L 0,0 Z" transform="translate(21 3)" class="colorffac33 svgShape"></path><path fill="#ffffff" d="M 0,0 C 1.104,0 2,-0.896 2,-2 2,-3.104 1.104,-4 0,-4 l -4,0 c -1.104,0 -2,0.896 -2,2 0,1.104 0.896,2 2,2 l 4,0 z" transform="translate(7 21)" class="colorffac33 svgShape"></path><path fill="#ffffff" d="M 0,0 C 1.104,0 2,-0.896 2,-2 2,-3.104 1.104,-4 0,-4 l -4,0 c -1.104,0 -2,0.896 -2,2 0,1.104 0.896,2 2,2 l 4,0 z" transform="translate(35 21)" class="colorffac33 svgShape"></path><path fill="#ffffff" d="m 0,0 c 0.781,0.78 2.047,0.781 2.828,0 0.781,-0.78 0.781,-2.048 0,-2.828 L 0,-5.657 c -0.781,-0.78 -2.048,-0.78 -2.828,0 -0.781,0.781 -0.781,2.048 0,2.828 L 0,0 Z" transform="translate(9.1 11.929)" class="colorffac33 svgShape"></path><path fill="#ffffff" d="m 0,0 c 0.781,0.781 2.047,0.782 2.828,0 0.781,-0.78 0.781,-2.047 0,-2.828 L 0,-5.656 c -0.781,-0.781 -2.048,-0.781 -2.828,-0.001 -0.781,0.782 -0.781,2.048 0,2.829 L 0,0 Z" transform="translate(28.9 31.727)" class="colorffac33 svgShape"></path><path fill="#ffffff" d="m 0,0 c -0.78,0.781 -0.781,2.047 0,2.828 0.78,0.781 2.048,0.781 2.828,0 L 5.657,0 c 0.78,-0.781 0.78,-2.048 0,-2.828 -0.781,-0.781 -2.048,-0.781 -2.828,0 L 0,0 Z" transform="translate(26.071 9.1)" class="colorffac33 svgShape"></path><path fill="#ffffff" d="m 0,0 c -2.761,0 -5,2.238 -5,5 0,2.761 2.239,5 5,5 C 2.762,10 5,7.761 5,5 5,2.238 2.762,0 0,0 m 0,14 c -4.971,0 -9,-4.03 -9,-9 0,-4.971 4.029,-9 9,-9 4.971,0 9,4.029 9,9 0,4.97 -4.029,9 -9,9" transform="translate(19 14)" class="colorffac33 svgShape"></path><path fill="#ffffff" d="m 0,0 c -0.781,0.781 -0.782,2.047 0,2.828 0.78,0.781 2.047,0.781 2.828,0 L 5.656,0 c 0.781,-0.781 0.781,-2.048 0.001,-2.828 -0.782,-0.781 -2.048,-0.781 -2.829,0 L 0,0 Z" transform="translate(6.272 28.9)" class="colorffac33 svgShape"></path></g></svg></g></svg>