<svg id="SvgjsSvg1001" width="288" height="288" xmlns="http://www.w3.org/2000/svg" version="1.1" xmlns:xlink="http://www.w3.org/1999/xlink" xmlns:svgjs="http://svgjs.com/svgjs"><defs id="SvgjsDefs1002"></defs><g id="SvgjsG1008" transform="matrix(0.9167,0,0,0.9167,11.995200000000011,11.995200000000011)"><svg xmlns="http://www.w3.org/2000/svg" viewBox="0 0 32 32" width="288" height="288"><path d="M16 7a1 1 0 0 0 1-1V4a1 1 0 0 0-2 0V6A1 1 0 0 0 16 7zM7.51 9.93A1 1 0 0 0 8.93 8.51L7.51 7.1A1 1 0 0 0 6.1 8.51zM5 16H3a1 1 0 0 0 0 2H5a1 1 0 0 0 0-2zM29 16H27a1 1 0 0 0 0 2h2a1 1 0 0 0 0-2zM23.78 10.22a1 1 0 0 0 .71-.29L25.9 8.51A1 1 0 0 0 24.49 7.1L23.07 8.51a1 1 0 0 0 .71 1.71zM25 19H23.74A8 8 0 1 0 8.26 19H7a1 1 0 0 0 0 2H25a1 1 0 0 0 0-2zM10.34 19A5.9 5.9 0 0 1 10 17a6 6 0 0 1 12 0 5.9 5.9 0 0 1-.34 2zM19 27H13a1 1 0 0 0 0 2h6a1 1 0 0 0 0-2zM22 23H10a1 1 0 0 0 0 2H22a1 1 0 0 0 0-2z" fill="#ffffff" class="color000 svgShape"></path></svg></g></svg>