<svg id="SvgjsSvg1016" width="288" height="288" xmlns="http://www.w3.org/2000/svg" version="1.1" xmlns:xlink="http://www.w3.org/1999/xlink" xmlns:svgjs="http://svgjs.com/svgjs"><defs id="SvgjsDefs1017"></defs><g id="SvgjsG1018" transform="matrix(0.9167,0,0,0.9167,11.995200000000011,11.995200635528562)"><svg xmlns="http://www.w3.org/2000/svg" viewBox="0 0 32 32" width="288" height="288"><path d="M18.458,5.872a1,1,0,0,1,.01-1.414A5,5,0,1,1,22,13a1,1,0,0,1,0-2,3,3,0,1,0-2.128-5.118A1,1,0,0,1,18.458,5.872ZM13,13h6a1,1,0,0,0,0-2H13a1,1,0,0,0,0,2Zm3,6a1,1,0,0,0,0,2,3,3,0,1,1-2.128,5.118,1,1,0,0,0-1.4,1.424A5,5,0,1,0,16,19Zm-2,1a1,1,0,0,0-1-1H7a1,1,0,0,0,0,2h6A1,1,0,0,0,14,20Zm12-5a1,1,0,0,0,0,2,2,2,0,0,1,0,4,1,1,0,0,0,0,2,4,4,0,0,0,0-8Zm-3,0H14a1,1,0,0,0,0,2h9a1,1,0,0,0,0-2ZM3,13h7a1,1,0,0,0,0-2H3a1,1,0,0,0,0,2Zm1,6H3a1,1,0,0,0,0,2H4a1,1,0,0,0,0-2Z" data-name="17 wind" fill="#ffffff" class="color000 svgShape"></path></svg></g></svg>